<?xml version="1.0" encoding="UTF-8"?>
<svg xmlns="http://www.w3.org/2000/svg" viewBox="0 0 33 34.21">
  <defs>
    <style>
      .e {
        fill: #40ae49;
      }

      .e, .f, .g, .h, .i, .j, .k, .l, .m, .n, .o, .p, .q, .r, .s, .t, .u, .v, .w, .x, .y, .z, .aa, .ab, .ac {
        stroke-width: 0px;
      }

      .f {
        fill: #d19f2a;
      }

      .ad {
        stroke: #000;
        stroke-miterlimit: 10;
      }

      .ad, .n {
        fill: none;
      }

      .g {
        fill: #9f7c69;
      }

      .h {
        fill: #e6e6e6;
      }

      .i {
        fill: #c22033;
      }

      .j {
        fill: #ea1d2d;
      }

      .k {
        fill: #cd8b2a;
      }

      .l {
        fill: #c89d8d;
      }

      .m {
        fill: #2d9a47;
      }

      .o {
        fill: #48773c;
      }

      .p {
        fill: #fff;
      }

      .q {
        fill: #8f1838;
      }

      .r {
        fill: #fdb714;
      }

      .ae {
        font-family: GillSansMT-Condensed, 'Gill Sans MT Condensed';
        font-size: 14px;
      }

      .s {
        fill: #00558a;
      }

      .t {
        fill: #f99d25;
      }

      .u {
        fill: #007dbb;
      }

      .v {
        fill: #231f20;
      }

      .w {
        fill: #00add8;
      }

      .x {
        fill: #f4f4f4;
      }

      .y {
        fill: #424242;
      }

      .z {
        fill: #e01a83;
      }

      .aa {
        fill: #1a3668;
      }

      .ab {
        fill: #f36e24;
      }

      .ac {
        fill: #ef412a;
      }
    </style>
  </defs>
  <g id="b" data-name="Layer 2">
    <rect class="g" x="26.84" y="16.55" width="3.16" height="10.89"/>
    <rect class="g" x="2.26" y="17.95" width="3.62" height="9.48"/>
    <rect class="x" x=".94" y="17.2" width="4.94" height=".75"/>
    <path class="h" d="m5.88,16.19c-.04,1.76-.07,3.51-.11,5.27.74-.54,1.48-1.09,2.22-1.63h7.27v-3.63H5.88Z"/>
    <rect class="x" x="5.77" y="15.84" width="21.42" height=".7"/>
    <rect class="p" x="27.19" y="17.6" width="4.57" height=".7"/>
    <polygon class="l" points="15.6 6.71 32.05 17.6 27.19 17.6 27.19 15.84 5.77 15.84 5.77 17.25 .94 17.2 15.6 6.71"/>
    <rect class="g" x="30" y="20.06" width="2.5" height="7.37"/>
    <path class="h" d="m17.43,16.55c-.03,1.03-.05,2.07-.08,3.1h7.02c.82.49,1.64.97,2.46,1.46-.01-.73-.02-1.46-.03-2.19v-2.37h-9.37Z"/>
    <rect class="y" x="6.47" y="16.9" width="2.11" height="2.11"/>
    <rect class="y" x="12.79" y="16.9" width="2.11" height="2.11"/>
    <rect class="y" x="18.06" y="16.9" width="2.11" height="2.11"/>
    <rect class="y" x="24.03" y="16.9" width="2.11" height="2.11"/>
    <rect class="g" x="15.25" y="21.81" width="2.46" height="5.62"/>
    <rect class="g" x="15.25" y="16.55" width="2.46" height="2.81"/>
    <rect class="h" x="5.77" y="21.11" width="9.48" height="6.32"/>
    <rect class="h" x="17.71" y="21.81" width="9.13" height="5.62"/>
    <rect class="y" x="6.47" y="22.52" width="2.11" height="3.16"/>
    <rect class="y" x="12.79" y="22.52" width="2.11" height="3.16"/>
    <rect class="y" x="18.06" y="22.52" width="2.11" height="3.16"/>
    <rect class="y" x="24.03" y="22.52" width="2.11" height="3.16"/>
    <rect class="y" x="21.22" y="22.52" width="2.11" height="4.92"/>
    <rect class="y" x="9.63" y="22.52" width="2.11" height="4.92"/>
    <rect class="p" x="5.77" y="21.11" width="21.07" height=".7"/>
    <path class="l" d="m8.23,19.35h16.86c1.17.7,2.34,1.4,3.51,2.11H5.07s2.71-1.97,3.16-2.11Z"/>
  </g>
  <g id="c" data-name="Layer 3">
    <rect class="n" x=".5" y="27.71" width="32" height="6"/>
    <g>
      <polygon class="v" points="2.48 32.74 5.25 27.9 8.02 32.74 6.56 32.74 6.56 31.77 6.77 31.77 6.01 30.99 5.25 31.77 5.46 31.77 5.46 32.74 4.66 32.74 4.66 32.1 5.17 32.17 4.8 31.41 5.01 31.54 4.66 30.75 4.83 30.87 4.55 29.96 4.29 30.87 4.44 30.75 4.1 31.54 4.32 31.41 3.94 32.17 4.44 32.1 4.44 32.74 2.48 32.74"/>
      <rect class="v" x="5.82" y="32.04" width=".37" height=".71"/>
    </g>
    <g>
      <path class="v" d="m27.16,32.35c.14,0,.25.1.25.23s-.11.22-.25.22-.25-.1-.25-.22.11-.23.25-.23Z"/>
      <path class="v" d="m27.71,32.75v-2.08h.68c.77,0,.99.45.99,1.04s-.22,1.04-.99,1.04h-.68Zm.42-.37h.27c.41,0,.54-.28.54-.67s-.13-.67-.54-.67h-.27v1.34Z"/>
      <path class="v" d="m30.18,31.99v.76h-.42v-2.08h.42v.79l.69-.79h.56l-.91.96.98,1.12h-.55l-.7-.83-.06.07Z"/>
    </g>
    <path class="v" d="m11.98,32.73l-.17-.46h-.71l-.17.45h-.49l.84-2.1h.34s.84,2.1.84,2.1h-.48Zm-.74-.85h.42l-.2-.56-.21.56Z"/>
    <path class="v" d="m8.68,32.73v-2.08h.72c.68,0,.99.39.98,1.05,0,.62-.3,1.03-.98,1.03h-.72Zm.73-.43c.38,0,.54-.24.53-.61,0-.32-.09-.61-.53-.61h-.3s0,1.21,0,1.21h.29Z"/>
    <path class="v" d="m14.16,32.73l-.99-1.24v1.23s-.44,0-.44,0v-2.08s.31,0,.31,0l.99,1.23v-1.23h.44v2.08s-.31,0-.31,0Z"/>
    <path class="v" d="m16.23,32.73v-.84s-.86,0-.86,0v.84s-.45,0-.45,0v-2.07s.45,0,.45,0v.79s.85,0,.85,0v-.8s.45,0,.45,0v2.08h-.44Z"/>
    <path class="v" d="m20.21,31.45c.57.05.77.24.77.64,0,.36-.23.69-.88.7-.21,0-.6-.06-.72-.11v-.44c.13.05.45.11.7.11.35,0,.45-.1.46-.25,0-.15-.08-.2-.39-.23-.58-.05-.8-.22-.8-.59s.21-.69.86-.69c.19,0,.48.02.68.12v.43c-.2-.06-.43-.1-.68-.1-.33,0-.42.07-.43.22,0,.15.12.16.42.19Z"/>
    <path class="v" d="m22.26,31.09v1.64s-.46,0-.46,0v-1.64s-.61,0-.61,0v-.44s1.69,0,1.69,0v.44h-.61Z"/>
    <path class="v" d="m24.6,31.88h-.97s0,.41,0,.41h1.1v.44h-1.54v-2.08s1.54,0,1.54,0v.44h-1.1v.36h.97s0,.44,0,.44Z"/>
    <path class="v" d="m25.55,32.31h1.1v.44s-1.54,0-1.54,0v-2.08h.45v1.65Z"/>
    <g>
      <path class="e" d="m17.48,31.33s.06-.09.1-.13l-.34-.37c-.09.08-.16.18-.22.28l.45.23Z"/>
      <path class="f" d="m18.32,31.07c.05.02.1.05.14.09l.34-.37c-.09-.08-.19-.14-.3-.19l-.18.47Z"/>
      <path class="i" d="m19.11,31.18l-.45.23c.02.05.04.1.05.16l.51-.05c-.01-.12-.05-.23-.1-.34"/>
      <path class="m" d="m18.62,31.34l.45-.23c-.06-.1-.13-.2-.21-.28l-.34.37s.07.09.1.13"/>
      <path class="o" d="m17.39,31.66s0-.02,0-.03l-.51-.05s0,.05,0,.08c0,.1.01.19.03.28l.49-.14s-.02-.09-.02-.14"/>
      <path class="r" d="m18.56,32.08s-.08.08-.12.12l.27.43c.1-.07.19-.15.26-.24l-.4-.31Z"/>
      <path class="ac" d="m18.7,31.66s0,.09-.02.14l.49.14c.02-.09.03-.18.03-.28,0-.02,0-.05,0-.07l-.51.05s0,.02,0,.02"/>
      <path class="t" d="m17.55,32.09l-.4.31c.08.09.16.17.26.24l.27-.43s-.09-.07-.13-.11"/>
      <path class="u" d="m17.4,31.56c0-.06.03-.11.05-.16l-.45-.23c-.05.11-.08.22-.1.34l.51.05Z"/>
      <path class="q" d="m18.64,32.67l-.27-.43s-.1.05-.16.06l.09.5c.12-.03.23-.07.33-.13"/>
      <path class="w" d="m18.67,31.87c-.02.05-.04.1-.07.15l.41.31c.07-.09.12-.2.15-.31l-.49-.14Z"/>
      <path class="ab" d="m18.14,32.31s-.06,0-.09,0c-.03,0-.05,0-.08,0l-.09.5c.06,0,.11.01.17.01.06,0,.13,0,.19-.02l-.09-.5Z"/>
      <path class="j" d="m18.09,31.01c.06,0,.11.01.16.03l.18-.47c-.11-.04-.22-.06-.34-.07v.51Z"/>
      <path class="z" d="m17.9,32.3c-.06-.01-.11-.03-.16-.06l-.27.43c.1.06.21.1.33.13l.09-.5Z"/>
      <path class="aa" d="m17.85,31.04c.05-.02.11-.03.17-.03v-.51c-.12,0-.24.03-.35.06l.18.47Z"/>
      <path class="k" d="m17.51,32.03s-.06-.1-.08-.16l-.49.14c.04.12.09.22.16.32l.4-.31Z"/>
      <path class="s" d="m17.64,31.15s.09-.06.14-.09l-.18-.47c-.11.05-.21.11-.3.18l.34.37Z"/>
    </g>
    <text/>
    <text class="ae" transform="translate(2.28 11.68)"><tspan x="0" y="0">Gjerrild</tspan></text>
  </g>
  <g id="d" data-name="border-black">
    <rect class="ad" x=".5" y="1.71" width="32" height="32" rx="2.47" ry="2.47"/>
  </g>
</svg>