<?xml version="1.0" encoding="UTF-8"?>
<svg id="a" data-name="Layer 2" xmlns="http://www.w3.org/2000/svg" viewBox="0 0 32 33.71">
  <defs>
    <style>
      .b {
        fill: #9f7c69;
      }

      .b, .c, .d, .e, .f, .g {
        stroke-width: 0px;
      }

      .c {
        fill: #e6e6e6;
      }

      .d {
        fill: #c89d8d;
      }

      .e {
        fill: #fff;
      }

      .f {
        fill: #f4f4f4;
      }

      .g {
        fill: #424242;
      }
    </style>
  </defs>
  <rect class="b" x="26.34" y="16.55" width="3.16" height="10.89"/>
  <rect class="b" x="1.76" y="17.95" width="3.62" height="9.48"/>
  <rect class="f" x=".44" y="17.2" width="4.94" height=".75"/>
  <path class="c" d="m5.38,16.19c-.04,1.76-.07,3.51-.11,5.27.74-.54,1.48-1.09,2.22-1.63h7.27v-3.63H5.38Z"/>
  <rect class="f" x="5.27" y="15.84" width="21.42" height=".7"/>
  <rect class="e" x="26.69" y="17.6" width="4.57" height=".7"/>
  <polygon class="d" points="15.1 6.71 31.55 17.6 26.69 17.6 26.69 15.84 5.27 15.84 5.27 17.25 .44 17.2 15.1 6.71"/>
  <rect class="b" x="29.5" y="20.06" width="2.5" height="7.37"/>
  <path class="c" d="m16.93,16.55c-.03,1.03-.05,2.07-.08,3.1h7.02c.82.49,1.64.97,2.46,1.46-.01-.73-.02-1.46-.03-2.19v-2.37h-9.37Z"/>
  <rect class="g" x="5.97" y="16.9" width="2.11" height="2.11"/>
  <rect class="g" x="12.29" y="16.9" width="2.11" height="2.11"/>
  <rect class="g" x="17.56" y="16.9" width="2.11" height="2.11"/>
  <rect class="g" x="23.53" y="16.9" width="2.11" height="2.11"/>
  <rect class="b" x="14.75" y="21.81" width="2.46" height="5.62"/>
  <rect class="b" x="14.75" y="16.55" width="2.46" height="2.81"/>
  <rect class="c" x="5.27" y="21.11" width="9.48" height="6.32"/>
  <rect class="c" x="17.21" y="21.81" width="9.13" height="5.62"/>
  <rect class="g" x="5.97" y="22.52" width="2.11" height="3.16"/>
  <rect class="g" x="12.29" y="22.52" width="2.11" height="3.16"/>
  <rect class="g" x="17.56" y="22.52" width="2.11" height="3.16"/>
  <rect class="g" x="23.53" y="22.52" width="2.11" height="3.16"/>
  <rect class="g" x="20.72" y="22.52" width="2.11" height="4.92"/>
  <rect class="g" x="9.13" y="22.52" width="2.11" height="4.92"/>
  <rect class="e" x="5.27" y="21.11" width="21.07" height=".7"/>
  <path class="d" d="m7.73,19.35h16.86c1.17.7,2.34,1.4,3.51,2.11H4.57s2.71-1.97,3.16-2.11Z"/>
</svg>