<?xml version="1.0" encoding="UTF-8"?>
<svg id="a" data-name="on-black-logo" xmlns="http://www.w3.org/2000/svg" xmlns:xlink="http://www.w3.org/1999/xlink" viewBox="0 0 626.26 500">
  <defs>
    <style>
      .f {
        fill: #c22033;
      }

      .f, .g, .h, .i, .j, .k, .l, .m, .n, .o, .p, .q, .r, .s, .t, .u, .v {
        stroke: #fff;
        stroke-miterlimit: 10;
        stroke-width: .25px;
      }

      .w, .x, .y {
        fill: #fff;
      }

      .z {
        font-family: BernardMT-Condensed, 'Bernard MT Condensed';
        font-size: 120px;
      }

      .aa {
        fill: #9f7c69;
      }

      .aa, .ab, .ac, .y, .ad, .ae {
        stroke-width: 0px;
      }

      .g {
        fill: #fdb714;
      }

      .x {
        font-size: 12px;
      }

      .x, .af, .ag {
        font-family: GillSansMT-Condensed, 'Gill Sans MT Condensed';
      }

      .ab {
        fill: #e6e6e6;
      }

      .h {
        fill: #48773c;
      }

      .i {
        fill: #ef412a;
      }

      .ac {
        fill: #c89d8d;
      }

      .j {
        fill: #1a3668;
      }

      .k {
        fill: #8f1838;
      }

      .l {
        fill: #00558a;
      }

      .m {
        fill: #2d9a47;
      }

      .af {
        font-size: 95px;
      }

      .n {
        fill: #00add8;
      }

      .o {
        fill: #cd8b2a;
      }

      .p {
        fill: #40ae49;
      }

      .q {
        fill: #007dbb;
      }

      .ag {
        font-size: 135px;
      }

      .r {
        fill: #d19f2a;
      }

      .s {
        fill: #f99d25;
      }

      .ad {
        fill: #f4f4f4;
      }

      .ah {
        clip-path: url(#c);
      }

      .ae {
        fill: #424242;
      }

      .t {
        fill: #e01a83;
      }

      .ai {
        letter-spacing: -.02em;
      }

      .u {
        fill: #ea1d2d;
      }

      .v {
        fill: #f36e24;
      }
    </style>
    <clipPath id="c">
      <text class="w" transform="translate(39.54 219.62)"><tspan class="ag" x="0" y="0">Gjerrild</tspan><tspan class="z" x="282.79" y="0"> </tspan></text>
    </clipPath>
  </defs>
  <g id="b" data-name="Title">
    <text class="w" transform="translate(126.26 181.98)"><tspan class="z"><tspan x="0" y="0"> </tspan></tspan><tspan class="af"><tspan class="ai" x="0" y="114">V</tspan><tspan x="28.81" y="114">andrerhjem</tspan></tspan></text>
    <g class="ah">
      <rect class="y" x="39.26" y="116.88" width="418" height="143"/>
      <text class="x" transform="translate(313.83 286.12)"><tspan x="0" y="0">Lorem ipsum</tspan></text>
    </g>
  </g>
  <g id="d" data-name="Danhostel">
    <g>
      <polygon class="y" points="195.13 337.39 214.26 304 233.36 337.39 223.27 337.39 223.28 330.66 224.76 330.66 219.47 325.27 214.26 330.66 215.68 330.66 215.68 337.39 210.21 337.37 210.21 332.98 213.72 333.42 211.13 328.2 212.62 329.09 210.21 323.64 211.35 324.45 209.44 318.16 207.61 324.45 208.68 323.64 206.35 329.09 207.85 328.16 205.24 333.42 208.68 332.98 208.68 337.39 195.13 337.39"/>
      <rect class="y" x="218.18" y="332.51" width="2.58" height="4.88"/>
    </g>
    <g>
      <path class="y" d="m365.42,334.65c.95,0,1.74.71,1.74,1.57s-.78,1.55-1.74,1.55-1.72-.69-1.72-1.55.76-1.57,1.72-1.57Z"/>
      <path class="y" d="m369.23,337.47v-14.35h4.71c5.32,0,6.83,3.1,6.83,7.17s-1.51,7.17-6.83,7.17h-4.71Zm2.93-2.54h1.84c2.86,0,3.73-1.93,3.73-4.63s-.87-4.63-3.73-4.63h-1.84v9.26Z"/>
      <path class="y" d="m386.3,332.22v5.24h-2.88v-14.35h2.88v5.45l4.73-5.45h3.86l-6.28,6.6,6.76,7.75h-3.82l-4.86-5.72-.4.48Z"/>
    </g>
    <path class="y" d="m260.72,337.32l-1.18-3.15h-4.93l-1.16,3.13h-3.36l5.81-14.47h2.34s5.78,14.47,5.78,14.47l-3.3.02Zm-5.1-5.87h2.87l-1.41-3.88-1.46,3.88Z"/>
    <path class="y" d="m237.9,337.29v-14.34h4.97c4.71,0,6.81,2.7,6.77,7.22-.04,4.28-2.04,7.12-6.75,7.12h-4.99Zm5.04-2.98c2.59,0,3.74-1.65,3.66-4.18-.06-2.21-.65-4.2-3.64-4.2l-2.04.02.02,8.36h1.99Z"/>
    <path class="y" d="m275.72,337.32l-6.83-8.53v8.51s-3.03,0-3.03,0v-14.36s2.14,0,2.14,0l6.82,8.5v-8.5h3.02v14.37s-2.13,0-2.13,0Z"/>
    <path class="y" d="m290.05,337.29v-5.82s-5.91,0-5.91,0v5.82s-3.09,0-3.09,0l.02-14.31h3.09s-.02,5.46-.02,5.46l5.88.02v-5.5s3.08,0,3.08,0v14.34h-3.05Z"/>
    <path class="y" d="m317.49,328.46c3.92.36,5.34,1.68,5.34,4.39,0,2.49-1.6,4.76-6.07,4.8-1.48.01-4.15-.43-4.97-.79l.03-3.01c.9.34,3.05.78,4.82.78,2.43,0,3.1-.66,3.14-1.72.04-1.06-.55-1.36-2.7-1.56-4.01-.36-5.53-1.5-5.53-4.04s1.45-4.74,5.96-4.74c1.34,0,3.28.13,4.68.8v2.95c-1.35-.45-2.98-.71-4.7-.71-2.26,0-2.9.51-2.94,1.54-.04,1,.8,1.11,2.93,1.3Z"/>
    <path class="y" d="m331.64,325.98v11.32s-3.2,0-3.2,0v-11.32s-4.22,0-4.22,0v-3.04s11.63,0,11.63,0v3.04h-4.22Z"/>
    <path class="y" d="m347.74,331.45h-6.66s0,2.83,0,2.83h7.57v3h-10.65v-14.35s10.64,0,10.64,0v3h-7.56v2.5h6.66s0,3,0,3Z"/>
    <path class="y" d="m354.31,334.43h7.58v3s-10.66,0-10.66,0v-14.36h3.08v11.35Z"/>
    <g>
      <path class="p" d="m298.67,327.66c.2-.34.44-.65.72-.92l-2.36-2.59c-.59.57-1.1,1.22-1.5,1.95l3.14,1.56Z"/>
      <path class="r" d="m304.45,325.83c.36.16.69.37.99.62l2.36-2.58c-.62-.54-1.33-.98-2.1-1.31l-1.26,3.27Z"/>
      <path class="f" d="m309.86,326.61l-3.13,1.56c.15.35.26.72.31,1.11l3.49-.33c-.1-.83-.33-1.61-.67-2.34"/>
      <path class="m" d="m306.5,327.72l3.13-1.56c-.39-.72-.88-1.38-1.46-1.94l-2.36,2.58c.27.28.5.59.7.93"/>
      <path class="h" d="m298.04,329.95c0-.07,0-.14,0-.21l-3.49-.31c-.01.17-.02.35-.02.52,0,.67.08,1.32.24,1.94l3.37-.97c-.07-.31-.11-.64-.11-.97"/>
      <path class="g" d="m306.06,332.81c-.25.3-.53.57-.85.8l1.84,2.98c.68-.46,1.29-1.03,1.8-1.67l-2.79-2.11Z"/>
      <path class="i" d="m307.09,329.95c0,.33-.04.65-.1.96l3.37.97c.15-.62.24-1.26.24-1.93,0-.17,0-.33-.02-.49l-3.49.33c0,.05,0,.11,0,.16"/>
      <path class="s" d="m299.13,332.88l-2.79,2.12c.52.64,1.13,1.19,1.82,1.65l1.84-2.98c-.32-.22-.62-.49-.87-.79"/>
      <path class="q" d="m298.1,329.23c.06-.39.18-.77.33-1.12l-3.13-1.56c-.35.74-.58,1.53-.69,2.37l3.49.31Z"/>
      <path class="k" d="m306.62,336.86l-1.84-2.98c-.33.19-.69.34-1.07.44l.65,3.44c.81-.19,1.57-.49,2.26-.9"/>
      <path class="n" d="m306.85,331.4c-.12.36-.29.7-.49,1.01l2.8,2.11c.45-.65.81-1.38,1.06-2.15l-3.36-.97Z"/>
      <path class="v" d="m303.22,334.42c-.21.03-.43.05-.65.05-.18,0-.35-.01-.53-.03l-.65,3.44c.38.06.78.09,1.17.09.44,0,.88-.04,1.3-.11l-.65-3.44Z"/>
      <path class="u" d="m302.85,325.43c.39.02.76.1,1.12.22l1.26-3.27c-.75-.26-1.55-.42-2.38-.45v3.5Z"/>
      <path class="t" d="m301.54,334.35c-.39-.09-.76-.23-1.11-.42l-1.84,2.98c.71.41,1.48.71,2.3.88l.65-3.44Z"/>
      <path class="j" d="m301.21,325.63c.36-.11.75-.18,1.14-.2v-3.5c-.84.02-1.65.18-2.41.44l1.27,3.27Z"/>
      <path class="o" d="m298.82,332.48c-.22-.33-.4-.69-.53-1.07l-3.36.97c.25.8.63,1.55,1.11,2.22l2.79-2.12Z"/>
      <path class="l" d="m299.76,326.4c.3-.23.62-.43.97-.59l-1.27-3.26c-.75.32-1.45.74-2.06,1.26l2.36,2.59Z"/>
    </g>
  </g>
  <g id="e" data-name="House">
    <rect class="aa" x="409.77" y="187.04" width="9.82" height="33.84"/>
    <rect class="aa" x="333.35" y="191.41" width="11.26" height="29.47"/>
    <rect class="ad" x="329.26" y="189.07" width="15.35" height="2.34"/>
    <path class="ab" d="m344.61,185.95c-.11,5.46-.23,10.92-.34,16.37,2.3-1.69,4.59-3.39,6.89-5.08h22.58v-11.29h-29.13Z"/>
    <rect class="ad" x="344.27" y="184.86" width="66.59" height="2.18"/>
    <rect class="y" x="410.86" y="190.32" width="14.19" height="2.18"/>
    <polygon class="ac" points="374.84 156.48 425.96 190.32 410.86 190.32 410.86 184.86 344.27 184.86 344.27 189.22 329.26 189.07 374.84 156.48"/>
    <rect class="aa" x="419.59" y="197.96" width="38.21" height="22.92"/>
    <rect class="y" x="419.59" y="193.59" width="43.67" height="4.37"/>
    <path class="ab" d="m380.53,187.04c-.08,3.22-.16,6.43-.24,9.65h21.83c2.55,1.52,5.09,3.03,7.64,4.55-.03-2.27-.07-4.55-.1-6.82v-7.37h-29.13Z"/>
    <rect class="ae" x="346.45" y="188.13" width="6.55" height="6.55"/>
    <rect class="ae" x="366.1" y="188.13" width="6.55" height="6.55"/>
    <rect class="ae" x="382.48" y="188.13" width="6.55" height="6.55"/>
    <rect class="ae" x="401.03" y="188.13" width="6.55" height="6.55"/>
    <rect class="aa" x="373.74" y="203.42" width="7.64" height="17.47"/>
    <rect class="aa" x="373.74" y="187.04" width="7.64" height="8.73"/>
    <rect class="ab" x="344.27" y="201.23" width="29.47" height="19.65"/>
    <rect class="ab" x="381.39" y="203.42" width="28.38" height="17.47"/>
    <rect class="ae" x="346.45" y="205.6" width="6.55" height="9.82"/>
    <rect class="ae" x="366.1" y="205.6" width="6.55" height="9.82"/>
    <rect class="ae" x="382.48" y="205.6" width="6.55" height="9.82"/>
    <rect class="ae" x="401.03" y="205.6" width="6.55" height="9.82"/>
    <rect class="ae" x="392.3" y="205.6" width="6.55" height="15.28"/>
    <rect class="ae" x="356.28" y="205.6" width="6.55" height="15.28"/>
    <rect class="y" x="344.27" y="201.23" width="65.5" height="2.18"/>
    <path class="ac" d="m351.91,195.77h52.4c3.64,2.18,7.28,4.37,10.92,6.55h-73.14s8.42-6.12,9.82-6.55Z"/>
  </g>
</svg>