<?xml version="1.0" encoding="UTF-8"?>
<svg xmlns="http://www.w3.org/2000/svg" xmlns:xlink="http://www.w3.org/1999/xlink" viewBox="0 0 606 359.35">
  <defs>
    <style>
      .j {
        fill: #40ae49;
      }

      .j, .k, .l, .m, .n, .o, .p, .q, .r, .s, .t, .u, .v, .w, .x, .y, .z, .aa, .ab, .ac, .ad, .ae, .af, .ag, .ah, .ai {
        stroke-width: 0px;
      }

      .aj {
        stroke-width: .25px;
      }

      .aj, .ak, .al, .am, .an {
        stroke: #303030;
        stroke-miterlimit: 10;
      }

      .aj, .al {
        fill: none;
      }

      .k {
        fill: #d19f2a;
      }

      .ao {
        font-family: BernardMT-Condensed, 'Bernard MT Condensed';
        font-size: 120px;
      }

      .l {
        fill: #9f7c69;
      }

      .m {
        fill: #e6e6e6;
      }

      .n {
        fill: #c22033;
      }

      .o {
        fill: #ea1d2d;
      }

      .q {
        fill: #cd8b2a;
      }

      .r {
        fill: #c89d8d;
      }

      .ak, .ah {
        fill: #d31826;
      }

      .s {
        fill: #2d9a47;
      }

      .al {
        stroke-width: .5px;
      }

      .t {
        fill: #48773c;
      }

      .ap {
        clip-path: url(#f);
      }

      .aq {
        font-size: 95px;
      }

      .aq, .ar, .as {
        font-family: GillSansMT-Condensed, 'Gill Sans MT Condensed';
      }

      .u {
        fill: #fff;
      }

      .v {
        fill: #8f1838;
      }

      .w {
        fill: #fdb714;
      }

      .x {
        fill: #00558a;
      }

      .y {
        fill: #f99d25;
      }

      .z {
        fill: #007dbb;
      }

      .aa {
        fill: #231f20;
      }

      .am {
        fill: #191919;
      }

      .ar {
        font-size: 135px;
      }

      .ab {
        fill: #00add8;
      }

      .ac {
        fill: #f4f4f4;
      }

      .ad {
        fill: #424242;
      }

      .ae {
        fill: #e01a83;
      }

      .af {
        fill: #1a3668;
      }

      .as {
        font-size: 12px;
      }

      .ag {
        fill: #f36e24;
      }

      .an {
        fill: #666;
      }

      .at {
        letter-spacing: -.02em;
      }

      .ai {
        fill: #ef412a;
      }
    </style>
    <clipPath id="f">
      <text transform="translate(19.28 186.09)"><tspan><tspan class="ar" x="0" y="0">Gjerrild</tspan><tspan class="ao" x="282.79" y="0"> </tspan></tspan></text>
    </clipPath>
  </defs>
  <g id="a" data-name="Layer 7">
    <g>
      <polygon class="aa" points="253.22 310.35 272.16 277.28 291.09 310.35 281.09 310.35 281.1 303.68 282.57 303.68 277.33 298.34 272.16 303.68 273.58 303.68 273.58 310.35 268.16 310.33 268.16 305.98 271.63 306.42 269.07 301.25 270.54 302.13 268.16 296.73 269.29 297.53 267.39 291.31 265.58 297.53 266.65 296.73 264.33 302.13 265.82 301.21 263.23 306.42 266.65 305.98 266.65 310.35 253.22 310.35"/>
      <rect class="aa" x="276.05" y="305.52" width="2.55" height="4.83"/>
    </g>
    <g>
      <path class="aa" d="m421.88,307.64c.95,0,1.72.7,1.72,1.55s-.78,1.54-1.72,1.54-1.7-.68-1.7-1.54.76-1.55,1.7-1.55Z"/>
      <path class="aa" d="m425.67,310.43v-14.21h4.66c5.27,0,6.76,3.07,6.76,7.11s-1.49,7.11-6.76,7.11h-4.66Zm2.9-2.52h1.83c2.83,0,3.7-1.91,3.7-4.59s-.86-4.59-3.7-4.59h-1.83v9.17Z"/>
      <path class="aa" d="m442.57,305.23v5.19h-2.86v-14.21h2.86v5.4l4.68-5.4h3.82l-6.22,6.54,6.7,7.68h-3.78l-4.81-5.67-.4.47Z"/>
    </g>
    <path class="aa" d="m318.19,310.28l-1.17-3.12h-4.88l-1.15,3.1h-3.33l5.75-14.33h2.32s5.72,14.33,5.72,14.33l-3.27.02Zm-5.05-5.82h2.84l-1.4-3.84-1.44,3.84Z"/>
    <path class="aa" d="m295.58,310.26v-14.2h4.92c4.67,0,6.75,2.67,6.71,7.15-.04,4.24-2.02,7.05-6.69,7.05h-4.95Zm4.99-2.95c2.57,0,3.7-1.64,3.63-4.14-.06-2.19-.64-4.16-3.61-4.16l-2.02.02.02,8.28h1.97Z"/>
    <path class="aa" d="m333.04,310.28l-6.76-8.45v8.43s-3,0-3,0v-14.23s2.12,0,2.12,0l6.75,8.42v-8.42h3v14.24s-2.11,0-2.11,0Z"/>
    <path class="aa" d="m347.24,310.25v-5.77s-5.85,0-5.85,0v5.76s-3.06,0-3.06,0l.02-14.18h3.06s-.02,5.41-.02,5.41l5.83.02v-5.45s3.05,0,3.05,0v14.2h-3.02Z"/>
    <path class="aa" d="m374.42,301.51c3.88.36,5.29,1.66,5.29,4.35,0,2.46-1.58,4.72-6.01,4.76-1.46.01-4.11-.42-4.92-.78l.03-2.98c.89.33,3.02.77,4.77.77,2.4,0,3.07-.65,3.11-1.7.04-1.05-.54-1.35-2.67-1.54-3.97-.36-5.48-1.48-5.48-4s1.44-4.7,5.91-4.7c1.32,0,3.25.13,4.64.79v2.92c-1.34-.44-2.95-.7-4.65-.7-2.24,0-2.87.5-2.91,1.53-.04,1,.79,1.1,2.9,1.29Z"/>
    <path class="aa" d="m388.43,299.05v11.21s-3.17,0-3.17,0v-11.22s-4.18,0-4.18,0v-3.01s11.52,0,11.52,0v3.01h-4.18Z"/>
    <path class="aa" d="m404.38,304.47h-6.6s0,2.81,0,2.81h7.5v2.97h-10.55v-14.21s10.54,0,10.54,0v2.97h-7.49v2.48h6.6s0,2.98,0,2.98Z"/>
    <path class="aa" d="m410.88,307.42h7.51v2.97s-10.56,0-10.56,0v-14.22h3.05v11.24Z"/>
    <g>
      <path class="j" d="m355.77,300.71c.2-.34.44-.64.71-.92l-2.34-2.56c-.59.56-1.09,1.21-1.48,1.93l3.11,1.55Z"/>
      <path class="k" d="m361.5,298.9c.35.16.68.37.98.61l2.34-2.56c-.62-.53-1.32-.97-2.08-1.29l-1.25,3.24Z"/>
      <path class="n" d="m366.86,299.67l-3.1,1.55c.15.35.25.71.31,1.1l3.45-.33c-.1-.82-.33-1.6-.66-2.32"/>
      <path class="s" d="m363.53,300.77l3.1-1.55c-.38-.71-.87-1.36-1.45-1.93l-2.34,2.56c.27.27.5.58.69.92"/>
      <path class="t" d="m355.15,302.98c0-.07,0-.14,0-.21l-3.45-.31c-.01.17-.02.34-.02.52,0,.66.08,1.31.24,1.92l3.34-.96c-.07-.31-.11-.63-.11-.96"/>
      <path class="w" d="m363.1,305.82c-.25.3-.53.57-.84.79l1.82,2.95c.68-.46,1.28-1.02,1.79-1.66l-2.77-2.09Z"/>
      <path class="ai" d="m364.11,302.98c0,.33-.04.65-.1.95l3.33.96c.15-.61.23-1.25.23-1.91,0-.16,0-.33-.02-.49l-3.45.33c0,.05,0,.11,0,.16"/>
      <path class="y" d="m356.23,305.88l-2.76,2.1c.51.63,1.12,1.18,1.8,1.63l1.82-2.95c-.32-.22-.61-.49-.87-.78"/>
      <path class="z" d="m355.21,302.27c.06-.39.17-.76.33-1.11l-3.1-1.55c-.34.73-.58,1.52-.68,2.35l3.46.31Z"/>
      <path class="v" d="m363.65,309.83l-1.82-2.95c-.33.19-.69.33-1.06.43l.64,3.41c.8-.18,1.55-.49,2.24-.89"/>
      <path class="ab" d="m363.88,304.41c-.12.35-.28.69-.48,1l2.77,2.09c.45-.65.81-1.36,1.05-2.13l-3.33-.96Z"/>
      <path class="ag" d="m360.28,307.41c-.21.03-.43.05-.65.05-.18,0-.35-.01-.52-.03l-.64,3.41c.38.06.77.09,1.16.09.44,0,.87-.04,1.29-.1l-.64-3.41Z"/>
      <path class="o" d="m359.92,298.51c.38.02.76.1,1.11.21l1.25-3.24c-.74-.26-1.53-.42-2.35-.45v3.47Z"/>
      <path class="ae" d="m358.62,307.34c-.39-.09-.76-.23-1.1-.42l-1.82,2.95c.7.4,1.47.7,2.28.87l.64-3.41Z"/>
      <path class="af" d="m358.29,298.7c.36-.11.74-.18,1.13-.2v-3.47c-.83.02-1.63.17-2.39.43l1.25,3.23Z"/>
      <path class="q" d="m355.92,305.48c-.22-.33-.4-.68-.53-1.06l-3.33.96c.25.79.63,1.54,1.1,2.2l2.76-2.1Z"/>
      <path class="x" d="m356.86,299.46c.29-.23.62-.43.96-.58l-1.25-3.23c-.75.31-1.43.74-2.04,1.25l2.34,2.56Z"/>
    </g>
  </g>
  <g id="c" data-name="Layer 5">
    <circle class="am" cx="215.64" cy="305.23" r="4.02"/>
    <circle class="am" cx="200.28" cy="304.46" r="4.02"/>
    <circle class="am" cx="151.9" cy="304.08" r="4.02"/>
    <circle class="am" cx="169.56" cy="304.85" r="4.02"/>
    <circle class="am" cx="182.62" cy="304.85" r="4.02"/>
    <circle class="am" cx="100.16" cy="304.29" r="4.02"/>
    <circle class="am" cx="117.83" cy="303.52" r="4.02"/>
    <circle class="am" cx="133.95" cy="303.52" r="4.02"/>
    <circle class="am" cx="81.53" cy="304.89" r="4.02"/>
    <circle class="am" cx="28.32" cy="304.89" r="4.02"/>
    <circle class="am" cx="62.45" cy="304.89" r="4.02"/>
    <circle class="am" cx="44.88" cy="304.89" r="4.02"/>
    <rect class="ah" x="12" y="287.06" width="217.87" height="17.07"/>
    <rect class="am" x="12.25" y="280.29" width="217.87" height="7.03"/>
    <rect class="an" x="23.3" y="289.32" width="12.05" height="9.04"/>
    <rect class="an" x="38.86" y="289.32" width="12.05" height="9.04"/>
    <rect class="an" x="54.42" y="289.32" width="12.05" height="9.04"/>
    <rect class="an" x="174.4" y="289.32" width="12.05" height="9.04"/>
    <rect class="an" x="189.96" y="289.32" width="12.05" height="9.04"/>
    <rect class="an" x="205.52" y="289.32" width="12.05" height="9.04"/>
    <rect class="an" x="222.59" y="288.82" width="5.02" height="9.54"/>
    <rect class="an" x="14.26" y="288.82" width="5.02" height="9.54"/>
    <rect class="an" x="88.27" y="289.27" width="12.05" height="9.04"/>
    <rect class="an" x="103.83" y="289.27" width="12.05" height="9.04"/>
    <rect class="an" x="119.4" y="289.27" width="12.05" height="9.04"/>
    <rect class="an" x="135.28" y="289.27" width="12.05" height="9.04"/>
    <rect class="ak" x="73.83" y="288.16" width="8.45" height="15.36"/>
    <rect class="al" x="74.98" y="290.08" width="2.3" height="3.84" rx=".71" ry=".71"/>
    <rect class="al" x="78.82" y="290.08" width="2.3" height="3.84" rx=".71" ry=".71"/>
    <line class="aj" x1="78.05" y1="303.14" x2="78.05" y2="288.55"/>
    <rect class="ak" x="157" y="288.07" width="8.45" height="15.36"/>
    <rect class="al" x="158.15" y="289.99" width="2.3" height="3.84" rx=".71" ry=".71"/>
    <rect class="al" x="161.99" y="289.99" width="2.3" height="3.84" rx=".71" ry=".71"/>
    <line class="aj" x1="161.22" y1="303.05" x2="161.22" y2="288.45"/>
  </g>
  <g id="e" data-name="GjerrildText">
    <text transform="translate(106 148.45)"><tspan class="ao"><tspan x="0" y="0"> </tspan></tspan><tspan class="aq"><tspan class="at" x="0" y="114">V</tspan><tspan x="28.81" y="114">andrerhjem</tspan></tspan></text>
    <g class="ap">
      <rect class="p" x="19" y="83.35" width="418" height="143"/>
      <text class="as" transform="translate(293.57 252.59)"><tspan x="0" y="0">Lorem ipsum</tspan></text>
    </g>
  </g>
  <g id="g" data-name="Layer 9">
    <g>
      <rect class="l" x="391.51" y="147.51" width="9.82" height="33.84"/>
      <rect class="l" x="315.1" y="151.88" width="11.26" height="29.47"/>
      <g id="h" data-name="Layer 12">
        <rect class="ac" x="311" y="149.54" width="15.35" height="2.34"/>
      </g>
      <path class="m" d="m326.35,146.42c-.11,5.46-.23,10.92-.34,16.37,2.3-1.69,4.59-3.39,6.89-5.08h22.58v-11.29h-29.13Z"/>
      <g>
        <rect class="ac" x="326.01" y="145.33" width="66.59" height="2.18"/>
        <rect class="u" x="392.6" y="150.78" width="14.19" height="2.18"/>
      </g>
      <polygon class="r" points="356.58 116.94 407.7 150.78 392.6 150.78 392.6 145.33 326.01 145.33 326.01 149.69 311 149.54 356.58 116.94"/>
      <g>
        <g>
          <rect class="l" x="401.33" y="158.43" width="38.21" height="22.92"/>
          <rect class="u" x="401.33" y="154.06" width="43.67" height="4.37"/>
        </g>
        <path class="m" d="m362.27,147.51c-.08,3.22-.16,6.43-.24,9.65h21.83c2.55,1.52,5.09,3.03,7.64,4.55-.03-2.27-.07-4.55-.1-6.82v-7.37h-29.13Z"/>
        <g>
          <rect class="ad" x="328.19" y="148.6" width="6.55" height="6.55"/>
          <rect class="ad" x="347.84" y="148.6" width="6.55" height="6.55"/>
          <rect class="ad" x="364.22" y="148.6" width="6.55" height="6.55"/>
          <rect class="ad" x="382.78" y="148.6" width="6.55" height="6.55"/>
          <g id="i" data-name="Layer 21">
            <g>
              <rect class="l" x="355.49" y="163.88" width="7.64" height="17.47"/>
              <rect class="l" x="355.49" y="147.51" width="7.64" height="8.73"/>
            </g>
          </g>
        </g>
        <rect class="m" x="326.01" y="161.7" width="29.47" height="19.65"/>
        <rect class="m" x="363.13" y="163.88" width="28.38" height="17.47"/>
        <rect class="ad" x="328.19" y="166.07" width="6.55" height="9.82"/>
        <rect class="ad" x="347.84" y="166.07" width="6.55" height="9.82"/>
        <rect class="ad" x="364.22" y="166.07" width="6.55" height="9.82"/>
        <rect class="ad" x="382.78" y="166.07" width="6.55" height="9.82"/>
        <rect class="ad" x="374.04" y="166.07" width="6.55" height="15.28"/>
        <rect class="ad" x="338.02" y="166.07" width="6.55" height="15.28"/>
      </g>
      <rect class="u" x="326.01" y="161.7" width="65.5" height="2.18"/>
      <path class="r" d="m333.65,156.24h52.4c3.64,2.18,7.28,4.37,10.92,6.55h-73.14s8.42-6.12,9.82-6.55Z"/>
    </g>
  </g>
</svg>