<?xml version="1.0" encoding="UTF-8"?>
<svg id="a" data-name="on-white-logo" xmlns="http://www.w3.org/2000/svg" xmlns:xlink="http://www.w3.org/1999/xlink" viewBox="0 0 626.26 500">
  <defs>
    <style>
      .f {
        fill: #40ae49;
      }

      .f, .g, .h, .i, .j, .k, .l, .m, .n, .o, .p, .q, .r, .s, .t, .u, .v, .w, .x, .y, .z, .aa, .ab, .ac, .ad {
        stroke-width: 0px;
      }

      .g {
        fill: #d19f2a;
      }

      .ae {
        font-family: BernardMT-Condensed, 'Bernard MT Condensed';
        font-size: 120px;
      }

      .h {
        fill: #9f7c69;
      }

      .i {
        fill: #e6e6e6;
      }

      .j {
        fill: #c22033;
      }

      .k {
        fill: #ea1d2d;
      }

      .m {
        fill: #cd8b2a;
      }

      .n {
        fill: #c89d8d;
      }

      .o {
        fill: #2d9a47;
      }

      .p {
        fill: #48773c;
      }

      .af {
        font-size: 95px;
      }

      .af, .ag, .ah {
        font-family: GillSansMT-Condensed, 'Gill Sans MT Condensed';
      }

      .q {
        fill: #fff;
      }

      .r {
        fill: #8f1838;
      }

      .s {
        fill: #fdb714;
      }

      .t {
        fill: #00558a;
      }

      .u {
        fill: #f99d25;
      }

      .v {
        fill: #007dbb;
      }

      .w {
        fill: #231f20;
      }

      .ag {
        font-size: 135px;
      }

      .x {
        fill: #00add8;
      }

      .y {
        fill: #f4f4f4;
      }

      .ai {
        clip-path: url(#c);
      }

      .z {
        fill: #424242;
      }

      .aa {
        fill: #e01a83;
      }

      .ab {
        fill: #1a3668;
      }

      .ah {
        font-size: 12px;
      }

      .ac {
        fill: #f36e24;
      }

      .aj {
        letter-spacing: -.02em;
      }

      .ad {
        fill: #ef412a;
      }
    </style>
    <clipPath id="c">
      <text transform="translate(39.28 220.74)"><tspan><tspan class="ag" x="0" y="0">Gjerrild</tspan><tspan class="ae" x="282.79" y="0"> </tspan></tspan></text>
    </clipPath>
  </defs>
  <g id="b" data-name="Title">
    <text transform="translate(126 183.1)"><tspan class="ae"><tspan x="0" y="0"> </tspan></tspan><tspan class="af"><tspan class="aj" x="0" y="114">V</tspan><tspan x="28.81" y="114">andrerhjem</tspan></tspan></text>
    <g class="ai">
      <rect class="l" x="39" y="118" width="418" height="143"/>
      <text class="ah" transform="translate(313.57 287.24)"><tspan x="0" y="0">Lorem ipsum</tspan></text>
    </g>
  </g>
  <g id="d" data-name="danhostel">
    <g>
      <polygon class="w" points="196.22 338 215.16 304.93 234.09 338 224.09 338 224.1 331.33 225.57 331.33 220.33 325.99 215.16 331.33 216.58 331.33 216.58 338 211.16 337.98 211.16 333.63 214.63 334.07 212.07 328.9 213.54 329.78 211.16 324.38 212.29 325.18 210.39 318.96 208.58 325.18 209.65 324.38 207.33 329.78 208.82 328.86 206.23 334.07 209.65 333.63 209.65 338 196.22 338"/>
      <rect class="w" x="219.05" y="333.17" width="2.55" height="4.83"/>
    </g>
    <g>
      <path class="w" d="m364.88,335.29c.95,0,1.72.7,1.72,1.55s-.78,1.54-1.72,1.54-1.7-.68-1.7-1.54.76-1.55,1.7-1.55Z"/>
      <path class="w" d="m368.67,338.08v-14.21h4.66c5.27,0,6.76,3.07,6.76,7.11s-1.49,7.11-6.76,7.11h-4.66Zm2.9-2.52h1.83c2.83,0,3.7-1.91,3.7-4.59s-.86-4.59-3.7-4.59h-1.83v9.17Z"/>
      <path class="w" d="m385.57,332.88v5.19h-2.86v-14.21h2.86v5.4l4.68-5.4h3.82l-6.22,6.54,6.7,7.68h-3.78l-4.81-5.67-.4.47Z"/>
    </g>
    <path class="w" d="m261.19,337.93l-1.17-3.12h-4.88l-1.15,3.1h-3.33l5.75-14.33h2.32s5.72,14.33,5.72,14.33l-3.27.02Zm-5.05-5.82h2.84l-1.4-3.84-1.44,3.84Z"/>
    <path class="w" d="m238.58,337.91v-14.2h4.92c4.67,0,6.75,2.67,6.71,7.15-.04,4.24-2.02,7.05-6.69,7.05h-4.95Zm4.99-2.95c2.57,0,3.7-1.64,3.63-4.14-.06-2.19-.64-4.16-3.61-4.16l-2.02.02.02,8.28h1.97Z"/>
    <path class="w" d="m276.04,337.93l-6.76-8.45v8.43s-3,0-3,0v-14.23s2.12,0,2.12,0l6.75,8.42v-8.42h3v14.24s-2.11,0-2.11,0Z"/>
    <path class="w" d="m290.24,337.9v-5.77s-5.85,0-5.85,0v5.76s-3.06,0-3.06,0l.02-14.18h3.06s-.02,5.41-.02,5.41l5.83.02v-5.45s3.05,0,3.05,0v14.2h-3.02Z"/>
    <path class="w" d="m317.42,329.16c3.88.36,5.29,1.66,5.29,4.35,0,2.46-1.58,4.72-6.01,4.76-1.46.01-4.11-.42-4.92-.78l.03-2.98c.89.33,3.02.77,4.77.77,2.4,0,3.07-.65,3.11-1.7.04-1.05-.54-1.35-2.67-1.54-3.97-.36-5.48-1.48-5.48-4s1.44-4.7,5.91-4.7c1.32,0,3.25.13,4.64.79v2.92c-1.34-.44-2.95-.7-4.65-.7-2.24,0-2.87.5-2.91,1.53-.04,1,.79,1.1,2.9,1.29Z"/>
    <path class="w" d="m331.43,326.69v11.21s-3.17,0-3.17,0v-11.22s-4.18,0-4.18,0v-3.01s11.52,0,11.52,0v3.01h-4.18Z"/>
    <path class="w" d="m347.38,332.12h-6.6s0,2.81,0,2.81h7.5v2.97h-10.55v-14.21s10.54,0,10.54,0v2.97h-7.49v2.48h6.6s0,2.98,0,2.98Z"/>
    <path class="w" d="m353.88,335.07h7.51v2.97s-10.56,0-10.56,0v-14.22h3.05v11.24Z"/>
    <g>
      <path class="f" d="m298.77,328.36c.2-.34.44-.64.71-.92l-2.34-2.56c-.59.56-1.09,1.21-1.48,1.93l3.11,1.55Z"/>
      <path class="g" d="m304.5,326.55c.35.16.68.37.98.61l2.34-2.56c-.62-.53-1.32-.97-2.08-1.29l-1.25,3.24Z"/>
      <path class="j" d="m309.86,327.32l-3.1,1.55c.15.35.25.71.31,1.1l3.45-.33c-.1-.82-.33-1.6-.66-2.32"/>
      <path class="o" d="m306.53,328.42l3.1-1.55c-.38-.71-.87-1.36-1.45-1.93l-2.34,2.56c.27.27.5.58.69.92"/>
      <path class="p" d="m298.15,330.63c0-.07,0-.14,0-.21l-3.45-.31c-.01.17-.02.34-.02.52,0,.66.08,1.31.24,1.92l3.34-.96c-.07-.31-.11-.63-.11-.96"/>
      <path class="s" d="m306.1,333.47c-.25.3-.53.57-.84.79l1.82,2.95c.68-.46,1.28-1.02,1.79-1.66l-2.77-2.09Z"/>
      <path class="ad" d="m307.11,330.63c0,.33-.04.65-.1.95l3.33.96c.15-.61.23-1.25.23-1.91,0-.16,0-.33-.02-.49l-3.45.33c0,.05,0,.11,0,.16"/>
      <path class="u" d="m299.23,333.53l-2.76,2.1c.51.63,1.12,1.18,1.8,1.63l1.82-2.95c-.32-.22-.61-.49-.87-.78"/>
      <path class="v" d="m298.21,329.92c.06-.39.17-.76.33-1.11l-3.1-1.55c-.34.73-.58,1.52-.68,2.35l3.46.31Z"/>
      <path class="r" d="m306.65,337.48l-1.82-2.95c-.33.19-.69.33-1.06.43l.64,3.41c.8-.18,1.55-.49,2.24-.89"/>
      <path class="x" d="m306.88,332.06c-.12.35-.28.69-.48,1l2.77,2.09c.45-.65.81-1.36,1.05-2.13l-3.33-.96Z"/>
      <path class="ac" d="m303.28,335.06c-.21.03-.43.05-.65.05-.18,0-.35-.01-.52-.03l-.64,3.41c.38.06.77.09,1.16.09.44,0,.87-.04,1.29-.1l-.64-3.41Z"/>
      <path class="k" d="m302.92,326.16c.38.02.76.1,1.11.21l1.25-3.24c-.74-.26-1.53-.42-2.35-.45v3.47Z"/>
      <path class="aa" d="m301.62,334.99c-.39-.09-.76-.23-1.1-.42l-1.82,2.95c.7.4,1.47.7,2.28.87l.64-3.41Z"/>
      <path class="ab" d="m301.29,326.35c.36-.11.74-.18,1.13-.2v-3.47c-.83.02-1.63.17-2.39.43l1.25,3.23Z"/>
      <path class="m" d="m298.92,333.13c-.22-.33-.4-.68-.53-1.06l-3.33.96c.25.79.63,1.54,1.1,2.2l2.76-2.1Z"/>
      <path class="t" d="m299.86,327.11c.29-.23.62-.43.96-.58l-1.25-3.23c-.75.31-1.43.74-2.04,1.25l2.34,2.56Z"/>
    </g>
  </g>
  <g id="e" data-name="house2d">
    <rect class="h" x="409.95" y="186.24" width="9.82" height="33.84"/>
    <rect class="h" x="333.53" y="190.61" width="11.26" height="29.47"/>
    <rect class="y" x="329.44" y="188.27" width="15.35" height="2.34"/>
    <path class="i" d="m344.79,185.15c-.11,5.46-.23,10.92-.34,16.37,2.3-1.69,4.59-3.39,6.89-5.08h22.58v-11.29h-29.13Z"/>
    <rect class="y" x="344.45" y="184.06" width="66.59" height="2.18"/>
    <rect class="q" x="411.04" y="189.52" width="14.19" height="2.18"/>
    <polygon class="n" points="375.02 155.68 426.14 189.52 411.04 189.52 411.04 184.06 344.45 184.06 344.45 188.42 329.44 188.27 375.02 155.68"/>
    <rect class="h" x="419.77" y="197.16" width="38.21" height="22.92"/>
    <rect class="q" x="419.77" y="192.79" width="43.67" height="4.37"/>
    <path class="i" d="m380.71,186.24c-.08,3.22-.16,6.43-.24,9.65h21.83c2.55,1.52,5.09,3.03,7.64,4.55-.03-2.27-.07-4.55-.1-6.82v-7.37h-29.13Z"/>
    <rect class="z" x="346.63" y="187.33" width="6.55" height="6.55"/>
    <rect class="z" x="366.28" y="187.33" width="6.55" height="6.55"/>
    <rect class="z" x="382.66" y="187.33" width="6.55" height="6.55"/>
    <rect class="z" x="401.22" y="187.33" width="6.55" height="6.55"/>
    <rect class="h" x="373.93" y="202.62" width="7.64" height="17.47"/>
    <rect class="h" x="373.93" y="186.24" width="7.64" height="8.73"/>
    <rect class="i" x="344.45" y="200.43" width="29.47" height="19.65"/>
    <rect class="i" x="381.57" y="202.62" width="28.38" height="17.47"/>
    <rect class="z" x="346.63" y="204.8" width="6.55" height="9.82"/>
    <rect class="z" x="366.28" y="204.8" width="6.55" height="9.82"/>
    <rect class="z" x="382.66" y="204.8" width="6.55" height="9.82"/>
    <rect class="z" x="401.22" y="204.8" width="6.55" height="9.82"/>
    <rect class="z" x="392.48" y="204.8" width="6.55" height="15.28"/>
    <rect class="z" x="356.46" y="204.8" width="6.55" height="15.28"/>
    <rect class="q" x="344.45" y="200.43" width="65.5" height="2.18"/>
    <path class="n" d="m352.09,194.97h52.4c3.64,2.18,7.28,4.37,10.92,6.55h-73.14s8.42-6.12,9.82-6.55Z"/>
  </g>
</svg>